<svg width="640" height="1288" xmlns="http://www.w3.org/2000/svg" xmlns:xlink="http://www.w3.org/1999/xlink" fill="none">
 <filter y="577.651" x="710.151" width="600.216" height="368.737" filterUnits="userSpaceOnUse" color-interpolation-filters="sRGB" id="a">
  <feGaussianBlur stdDeviation="10" result="effect1_foregroundBlur_625_167"/>
 </filter>
 <defs>
  <linearGradient y2="0.49107" y1="0.49107" x2="0.99519" x1="-0.00459" id="d">
   <stop stop-color="#aac1d3" offset="0"/>
   <stop stop-color="#bdd4e6" offset="1"/>
  </linearGradient>
  <linearGradient y2="0.00016" y1="0.99984" x2="0.4999" x1="0.4999" id="e">
   <stop stop-color="#eff4f8" offset="0"/>
   <stop stop-color="#dbe1e6" offset="1"/>
  </linearGradient>
  <linearGradient id="f">
   <stop stop-color="#e6eef3" offset="0"/>
   <stop stop-color="#f2f6f9" offset="0.99216"/>
  </linearGradient>
  <linearGradient y2="0.5" y1="0.5" xlink:href="#f" x2="0.99976" x1="-0.00026" id="h"/>
  <linearGradient y2="0.5" y1="0.5" xlink:href="#f" x2="0.99948" x1="-0.00025" id="i"/>
  <linearGradient y2="0.5" y1="0.5" xlink:href="#f" x2="0.99975" x1="-0.00022" id="j"/>
  <linearGradient y2="0.5" y1="0.5" xlink:href="#f" x2="0.99977" x1="0" id="k"/>
 </defs>
 <filter y="193" x="327.5" width="491" height="592" filterUnits="userSpaceOnUse" color-interpolation-filters="sRGB" id="b">
  <feGaussianBlur stdDeviation="3" result="effect1_foregroundBlur_625_167"/>
 </filter>
 <filter y="641" x="678.5" width="33" height="42" filterUnits="userSpaceOnUse" color-interpolation-filters="sRGB" id="c">
  <feGaussianBlur stdDeviation="5"/>
 </filter>
 <mask y="0" x="230" width="1463" maskUnits="userSpaceOnUse" height="1296" id="z">
  <path id="svg_1" fill="#fff" d="m1692.5,0l-1462,0l0,1296l1462,0l0,-1296z"/>
 </mask>
 <mask y="337" x="555" width="38" maskUnits="userSpaceOnUse" height="64" id="A">
  <path id="svg_2" fill="#fff" d="m574,401c10.217,0 18.5,-14.327 18.5,-32s-8.283,-32 -18.5,-32s-18.5,14.327 -18.5,32s8.283,32 18.5,32z"/>
 </mask>
 <mask y="337" x="655" width="38" maskUnits="userSpaceOnUse" height="64" id="B">
  <path id="svg_3" fill="#fff" d="m674,401c10.217,0 18.5,-14.327 18.5,-32s-8.283,-32 -18.5,-32s-18.5,14.327 -18.5,32s8.283,32 18.5,32z"/>
 </mask>
 <g>
  <title>Layer 1</title>
  <path stroke="#f0f4f9" id="svg_5" fill="#f7fafd" d="m602.71,1.001l-0.04,-0.001l-0.04,0l-565.21,0c-11.69,0 -20.913,2.903 -27.201,9.148c-6.292,6.249 -9.219,15.421 -9.219,27.041l0,1211.945c0,11.65 2.926,20.85 9.216,27.11c6.288,6.27 15.514,9.18 27.204,9.18l565.21,0l0.03,0l0.03,0c11.18,-0.26 20,-3.32 26,-9.59c5.99,-6.26 8.78,-15.31 8.78,-26.7l0,-1211.945c0,-11.297 -2.79,-20.283 -8.78,-26.522c-6,-6.246 -14.81,-9.337 -25.98,-9.666z"/>
  <path stroke="null" id="svg_9" fill="url(#e)" d="m63.89999,244c-16.1,0 -24.14,7.877 -24.14,23.631l0,274.29c0,15.754 8.04,23.631 24.14,23.631l516.18,0c15.25,-0.351 22.87,-8.228 22.87,-23.631l0,-274.29c0,-15.332 -7.62,-23.209 -22.87,-23.631l-516.18,0z"/>
  <path stroke="null" id="svg_8" fill="url(#d)" d="m570.06,53.427c0,1.477 0.6,2.813 1.8,4.008c1.13,1.126 2.51,1.688 4.13,1.688s2.96,-0.562 4.02,-1.688c1.27,-1.195 1.91,-2.531 1.91,-4.008l0,-0.211c0,-1.618 -0.64,-2.989 -1.91,-4.115c-1.06,-1.195 -2.4,-1.793 -4.02,-1.793s-3,0.598 -4.13,1.793c-1.2,1.126 -1.8,2.497 -1.8,4.115l0,0.211zm27,-4.326c-1.06,-1.195 -2.4,-1.793 -4.02,-1.793l-0.21,0c-1.63,0 -2.97,0.598 -4.03,1.793c-1.13,1.126 -1.69,2.497 -1.69,4.115l0,0.211c0,1.477 0.56,2.813 1.69,4.008c1.06,1.126 2.4,1.688 4.03,1.688l0.21,0c1.62,0 2.96,-0.562 4.02,-1.688c1.27,-1.195 1.91,-2.531 1.91,-4.008l0,-0.211c0,-1.618 -0.64,-2.989 -1.91,-4.115zm-43.84,4.326c0,1.477 0.57,2.813 1.7,4.008c1.06,1.126 2.4,1.688 4.02,1.688l0.21,0c1.56,0 2.9,-0.562 4.03,-1.688c1.27,-1.195 1.9,-2.531 1.9,-4.008l0,-0.211c0,-1.618 -0.63,-2.989 -1.9,-4.115c-1.13,-1.195 -2.47,-1.793 -4.03,-1.793l-0.21,0c-1.62,0 -2.96,0.598 -4.02,1.793c-1.13,1.126 -1.7,2.497 -1.7,4.115l0,0.211z"/>
  <path stroke="null" id="svg_10" fill-rule="evenodd" fill="#bdd4e6" d="m55.81,41.511l3.58,0l0,19.373l-3.58,0l0,-1.633c-1.06,1.347 -2.55,2.02 -4.5,2.02c-1.86,0 -3.46,-0.706 -4.78,-2.117s-1.99,-3.141 -1.99,-5.189s0.67,-3.778 1.99,-5.189c1.32,-1.412 2.92,-2.117 4.78,-2.117c1.95,0 3.44,0.673 4.5,2.02l0,-7.168zm-6.6,15.277c0.73,0.719 1.66,1.079 2.77,1.079s2.02,-0.364 2.75,-1.093c0.72,-0.729 1.08,-1.665 1.08,-2.809s-0.36,-2.08 -1.08,-2.809c-0.73,-0.729 -1.64,-1.093 -2.75,-1.093s-2.03,0.364 -2.76,1.093s-1.1,1.665 -1.1,2.809s0.36,2.085 1.09,2.823zm20.72,-10.129c1.51,0 2.77,0.507 3.76,1.522c0.99,1.014 1.48,2.417 1.48,4.206l0,8.497l-3.58,0l0,-8.054c0,-0.922 -0.25,-1.628 -0.75,-2.117s-1.16,-0.733 -1.99,-0.733c-0.93,0 -1.67,0.286 -2.22,0.858c-0.56,0.572 -0.84,1.429 -0.84,2.573l0,7.473l-3.57,0l0,-13.838l3.57,0l0,1.55c0.87,-1.292 2.25,-1.937 4.14,-1.937zm18.36,-5.148l3.58,0l0,19.373l-3.58,0l0,-1.633c-1.05,1.347 -2.55,2.02 -4.49,2.02c-1.87,0 -3.46,-0.706 -4.79,-2.117c-1.32,-1.411 -1.98,-3.141 -1.98,-5.189s0.66,-3.778 1.98,-5.189c1.33,-1.412 2.92,-2.117 4.79,-2.117c1.94,0 3.44,0.673 4.49,2.02l0,-7.168zm-6.6,15.277c0.74,0.719 1.66,1.079 2.77,1.079s2.03,-0.364 2.75,-1.093s1.08,-1.665 1.08,-2.809s-0.36,-2.08 -1.08,-2.809s-1.64,-1.093 -2.75,-1.093s-2.03,0.364 -2.76,1.093s-1.09,1.665 -1.09,2.809s0.36,2.085 1.08,2.823zm26.1,4.483c-2.09,0 -3.83,-0.701 -5.22,-2.103c-1.4,-1.402 -2.1,-3.137 -2.1,-5.203c0,-2.067 0.7,-3.801 2.1,-5.203c1.39,-1.402 3.13,-2.103 5.22,-2.103c1.35,0 2.58,0.322 3.69,0.968s1.96,1.513 2.53,2.602l-3.08,1.799c-0.28,-0.572 -0.7,-1.024 -1.26,-1.357c-0.57,-0.332 -1.2,-0.498 -1.9,-0.498c-1.08,0 -1.96,0.356 -2.67,1.066c-0.7,0.71 -1.05,1.619 -1.05,2.726c0,1.088 0.35,1.988 1.05,2.698c0.71,0.711 1.59,1.066 2.67,1.066c0.72,0 1.36,-0.162 1.92,-0.485c0.57,-0.322 0.99,-0.77 1.27,-1.342l3.1,1.771c-0.61,1.089 -1.47,1.961 -2.58,2.616s-2.34,0.982 -3.69,0.982zm19.31,-2.103c-1.42,1.402 -3.16,2.103 -5.21,2.103c-2.06,0 -3.79,-0.706 -5.2,-2.117c-1.42,-1.411 -2.13,-3.141 -2.13,-5.189s0.71,-3.778 2.13,-5.189c1.41,-1.412 3.14,-2.117 5.2,-2.117c2.05,0 3.79,0.705 5.21,2.117c1.43,1.411 2.14,3.141 2.14,5.189s-0.71,3.782 -2.14,5.203zm-7.9,-2.463c0.72,0.719 1.61,1.079 2.69,1.079c1.07,0 1.97,-0.36 2.69,-1.079c0.72,-0.72 1.08,-1.633 1.08,-2.74s-0.36,-2.02 -1.08,-2.74s-1.62,-1.079 -2.69,-1.079c-1.08,0 -1.97,0.359 -2.68,1.079s-1.07,1.633 -1.07,2.74s0.35,2.02 1.06,2.74zm19.83,-10.046c1.52,0 2.77,0.507 3.76,1.522c0.99,1.014 1.48,2.417 1.48,4.206l0,8.497l-3.57,0l0,-8.054c0,-0.922 -0.25,-1.628 -0.75,-2.117s-1.17,-0.733 -2,-0.733c-0.93,0 -1.67,0.286 -2.22,0.858c-0.56,0.572 -0.83,1.429 -0.83,2.573l0,7.473l-3.58,0l0,-13.838l3.58,0l0,1.55c0.87,-1.292 2.24,-1.937 4.13,-1.937zm15.79,3.819l-3.14,0l0,5.756c0,0.48 0.12,0.83 0.36,1.052c0.24,0.221 0.59,0.346 1.06,0.374c0.46,0.027 1.03,0.023 1.72,-0.014l0,3.238c-2.46,0.276 -4.2,0.046 -5.21,-0.692c-1,-0.738 -1.51,-2.057 -1.51,-3.958l0,-5.756l-2.41,0l0,-3.432l2.41,0l0,-2.795l3.58,-1.08l0,3.875l3.14,0l0,3.432zm4.68,4.954c0.48,1.734 1.79,2.601 3.92,2.601c1.36,0 2.4,-0.461 3.1,-1.384l2.89,1.661c-1.37,1.974 -3.39,2.961 -6.05,2.961c-2.29,0 -4.13,-0.692 -5.52,-2.075c-1.39,-1.384 -2.08,-3.128 -2.08,-5.231c0,-2.085 0.68,-3.824 2.05,-5.217s3.13,-2.089 5.27,-2.089c2.04,0 3.72,0.701 5.04,2.103s1.98,3.136 1.98,5.203c0,0.461 -0.05,0.95 -0.14,1.467l-10.46,0zm-0.05,-2.768l7.07,0c-0.2,-0.941 -0.62,-1.642 -1.26,-2.103s-1.36,-0.692 -2.18,-0.692c-0.96,0 -1.75,0.244 -2.38,0.733s-1.05,1.177 -1.25,2.062zm24.72,8.22l-4.14,0l-2.99,-4.207l-3.03,4.207l-4.13,0l5.08,-7.058l-4.86,-6.78l4.13,0l2.81,3.902l2.8,-3.902l4.1,0l-4.85,6.753l5.08,7.085zm9.26,-10.406l-3.13,0l0,5.756c0,0.48 0.12,0.83 0.36,1.052c0.24,0.221 0.59,0.346 1.05,0.374c0.46,0.027 1.04,0.023 1.72,-0.014l0,3.238c-2.46,0.276 -4.19,0.046 -5.2,-0.692s-1.51,-2.057 -1.51,-3.958l0,-5.756l-2.42,0l0,-3.432l2.42,0l0,-2.795l3.58,-1.08l0,3.875l3.13,0l0,3.432z" clip-rule="evenodd"/>
  <g id="svg_65">
   <path stroke="null" id="svg_7" fill="#fff" d="m63.89999,590.14703c-16.09,0 -24.14,7.947 -24.14,23.847l0,249.6c0,15.9 8.05,23.84 24.14,23.84l11.12,0l78.14,0l0.74,0l24.25,0l86.93,0l0.85,0l14.82,0l96.14,0l111.92,0l90,0c16.09,0 24.14,-7.94 24.14,-23.84l0,-249.6c0,-15.9 -8.05,-23.847 -24.14,-23.847l-298.06,0l-216.85,0z"/>
   <path stroke="null" id="svg_12" fill="url(#h)" d="m74.22999,832.79403c1.91,1.97 4.31,2.96 7.21,2.96l401.34,0c2.89,0 5.33,-0.99 7.31,-2.96c1.98,-1.98 2.97,-4.37 2.97,-7.19s-0.99,-5.15 -2.97,-6.98c-1.98,-2.11 -4.42,-3.17 -7.31,-3.17l-401.34,0c-2.9,0 -5.3,1.06 -7.21,3.17c-1.98,1.83 -2.97,4.16 -2.97,6.98s0.99,5.21 2.97,7.19z"/>
   <path stroke="null" id="svg_13" fill="url(#i)" d="m74.54999,779.77403c1.83,1.97 4.17,2.96 6.99,2.96l88.33,0l20.36,0l10.28,0l2.02,0l33.93,0l144.1,0l85.89,0c2.89,0 5.33,-0.99 7.31,-2.96c1.98,-1.98 2.97,-4.37 2.97,-7.19s-0.99,-5.22 -2.97,-7.19s-4.42,-2.96 -7.31,-2.96c-3.04,0 -31.67,0 -85.89,0c-65.39,0 -113.42,0 -144.1,0l-33.93,0c-0.64,0 -1.31,0 -2.02,0c-3.39,0 -6.82,0 -10.28,0c-6.65,0 -13.43,0 -20.36,0c-27.57,0 -57.01,0 -88.33,0c-2.82,0 -5.16,0.99 -6.99,2.96c-2.13,1.97 -3.19,4.37 -3.19,7.19s1.06,5.21 3.19,7.19z"/>
   <path stroke="null" id="svg_17" fill-rule="evenodd" fill="#c9d3db" d="m183.25999,678.82403c0,-4.14 0.97,-7.44 2.91,-9.9c1.93,-2.45 4.58,-3.68 7.94,-3.68c2.69,0 4.92,0.96 6.68,2.9l0,-13.57l7.41,0l0,37.74l-6.67,0l-0.36,-2.82c-1.84,2.21 -4.21,3.31 -7.11,3.31c-3.26,0 -5.87,-1.23 -7.84,-3.7c-1.97,-2.46 -2.96,-5.89 -2.96,-10.28zm7.4,0.52c0,2.49 0.45,4.4 1.35,5.72c0.91,1.33 2.22,1.99 3.94,1.99c2.29,0 3.9,-0.92 4.84,-2.77l0,-10.49c-0.93,-1.85 -2.52,-2.78 -4.79,-2.78c-3.56,0 -5.34,2.78 -5.34,8.33zm39.47,-6.95c-1.01,-0.13 -1.89,-0.2 -2.66,-0.2c-2.8,0 -4.63,0.91 -5.5,2.73l0,17.39l-7.39,0l0,-26.58l6.98,0l0.21,3.17c1.48,-2.44 3.53,-3.66 6.16,-3.66c0.82,0 1.59,0.1 2.3,0.32l-0.1,6.83zm2.13,6.38c0,-2.63 0.53,-4.98 1.58,-7.05c1.06,-2.06 2.58,-3.66 4.57,-4.79s4.29,-1.69 6.92,-1.69c3.73,0 6.78,1.09 9.14,3.29c2.36,2.19 3.68,5.17 3.95,8.94l0.06,1.82c0,4.08 -1.19,7.35 -3.56,9.81c-2.37,2.47 -5.55,3.7 -9.54,3.7s-7.17,-1.23 -9.55,-3.68c-2.38,-2.46 -3.57,-5.8 -3.57,-10.03l0,-0.32zm7.39,0.52c0,2.52 0.49,4.45 1.48,5.79c0.99,1.33 2.41,2 4.25,2c1.79,0 3.19,-0.66 4.19,-1.98c1.01,-1.32 1.51,-3.43 1.51,-6.33c0,-2.47 -0.5,-4.39 -1.51,-5.75c-1,-1.35 -2.42,-2.03 -4.24,-2.03c-1.81,0 -3.21,0.67 -4.2,2.02s-1.48,3.45 -1.48,6.28zm48.94,-0.02c0,4.09 -0.97,7.37 -2.91,9.83c-1.93,2.47 -4.54,3.7 -7.84,3.7c-2.79,0 -5.05,-0.93 -6.77,-2.8l0,12.53l-7.4,0l0,-36.8l6.86,0l0.25,2.6c1.8,-2.06 4.13,-3.09 7.01,-3.09c3.41,0 6.07,1.21 7.96,3.63c1.89,2.43 2.84,5.77 2.84,10.03l0,0.37zm-7.39,-0.52c0,-2.47 -0.46,-4.38 -1.37,-5.73c-0.92,-1.34 -2.24,-2.01 -3.98,-2.01c-2.32,0 -3.91,0.85 -4.78,2.56l0,10.88c0.9,1.75 2.51,2.63 4.83,2.63c3.53,0 5.3,-2.78 5.3,-8.33zm37.52,0.52c0,4.09 -0.96,7.37 -2.9,9.83c-1.93,2.47 -4.55,3.7 -7.84,3.7c-2.8,0 -5.05,-0.93 -6.78,-2.8l0,12.53l-7.39,0l0,-36.8l6.86,0l0.25,2.6c1.79,-2.06 4.13,-3.09 7.01,-3.09c3.41,0 6.06,1.21 7.96,3.63c1.89,2.43 2.83,5.77 2.83,10.03l0,0.37zm-7.39,-0.52c0,-2.47 -0.45,-4.38 -1.37,-5.73c-0.91,-1.34 -2.23,-2.01 -3.97,-2.01c-2.32,0 -3.92,0.85 -4.79,2.56l0,10.88c0.91,1.75 2.52,2.63 4.84,2.63c3.53,0 5.29,-2.78 5.29,-8.33zm28.66,13.56c-0.35,-0.64 -0.59,-1.43 -0.75,-2.38c-1.79,1.91 -4.11,2.87 -6.98,2.87c-2.71,0 -4.96,-0.75 -6.74,-2.26s-2.67,-3.41 -2.67,-5.7c0,-2.82 1.09,-4.98 3.26,-6.48c2.17,-1.51 5.32,-2.27 9.43,-2.29l3.4,0l0,-1.52c0,-1.23 -0.33,-2.21 -0.99,-2.95c-0.65,-0.74 -1.69,-1.11 -3.11,-1.11c-1.24,0 -2.22,0.29 -2.92,0.86c-0.71,0.58 -1.07,1.36 -1.07,2.36l-7.39,0c0,-1.54 0.5,-2.96 1.49,-4.27c0.98,-1.31 2.38,-2.34 4.19,-3.09c1.81,-0.74 3.84,-1.11 6.09,-1.11c3.41,0 6.12,0.82 8.12,2.47c2,1.64 3,3.96 3,6.94l0,11.52c0.02,2.52 0.39,4.43 1.1,5.72l0,0.42l-7.46,0zm-6.12,-4.94c1.09,0 2.1,-0.23 3.02,-0.7c0.92,-0.46 1.6,-1.09 2.05,-1.88l0,-4.57l-2.77,0c-3.7,0 -5.67,1.23 -5.9,3.69l-0.03,0.42c0,0.88 0.32,1.61 0.97,2.18c0.65,0.58 1.54,0.86 2.66,0.86zm43.75,-8.1c0,4.25 -0.95,7.57 -2.84,9.96c-1.89,2.38 -4.54,3.57 -7.93,3.57c-3,0 -5.4,-1.1 -7.19,-3.31l-0.33,2.82l-6.65,0l0,-37.74l7.39,0l0,13.54c1.71,-1.91 3.95,-2.87 6.73,-2.87c3.37,0 6.02,1.19 7.94,3.57s2.88,5.74 2.88,10.06l0,0.4zm-7.39,-0.52c0,-2.69 -0.45,-4.65 -1.33,-5.88c-0.89,-1.24 -2.21,-1.86 -3.97,-1.86c-2.35,0 -3.97,0.93 -4.86,2.78l0,10.49c0.9,1.86 2.54,2.8 4.91,2.8c2.39,0 3.96,-1.13 4.71,-3.39c0.36,-1.08 0.54,-2.73 0.54,-4.94zm20.39,13.56l-7.42,0l0,-37.74l7.42,0l0,37.74zm19.47,0.49c-4.06,0 -7.36,-1.19 -9.91,-3.59c-2.55,-2.39 -3.83,-5.57 -3.83,-9.55l0,-0.69c0,-2.67 0.54,-5.06 1.61,-7.16c1.08,-2.11 2.6,-3.73 4.57,-4.87c1.97,-1.13 4.22,-1.7 6.74,-1.7c3.79,0 6.76,1.14 8.94,3.44c2.17,2.29 3.26,5.54 3.26,9.75l0,2.9l-17.62,0c0.24,1.73 0.96,3.13 2.16,4.18c1.2,1.04 2.72,1.57 4.56,1.57c2.85,0 5.08,-0.99 6.68,-2.98l3.63,3.91c-1.11,1.51 -2.61,2.68 -4.5,3.53c-1.89,0.84 -3.99,1.26 -6.29,1.26zm-0.85,-21.81c-1.46,0 -2.65,0.47 -3.56,1.42c-0.92,0.95 -1.5,2.31 -1.76,4.08l10.29,0l0,-0.57c-0.04,-1.57 -0.48,-2.78 -1.33,-3.64c-0.86,-0.86 -2.07,-1.29 -3.64,-1.29z" clip-rule="evenodd"/>
  </g>
  <g id="svg_66">
   <path stroke="null" id="svg_6" fill="#fff" d="m63.9,89.717c-16.1,0 -24.14,7.947 -24.14,23.842l0,83.553c0,15.895 8.04,23.842 24.14,23.842l11.12,0l78.14,0l0.74,0l24.25,0l86.93,0l0.84,0l14.83,0l96.14,0l111.92,0l90,0c16.09,0 24.14,-7.947 24.14,-23.842l0,-83.553c0,-15.895 -8.05,-23.842 -24.14,-23.842l-298.06,0l-216.85,0z"/>
   <path stroke="null" id="svg_14" fill="url(#j)" d="m75.07999,175.389c-2.13,1.973 -3.19,4.369 -3.19,7.188c0,2.748 1.06,5.144 3.19,7.188c1.83,1.973 4.17,2.96 6.99,2.96l427.96,0c2.82,0 5.3,-0.987 7.42,-2.96c1.84,-2.044 2.76,-4.44 2.76,-7.188c0,-2.819 -0.92,-5.215 -2.76,-7.188c-2.12,-1.973 -4.6,-2.96 -7.42,-2.96l-427.96,0c-2.82,0 -5.16,0.987 -6.99,2.96z"/>
   <path stroke="null" id="svg_15" fill="url(#k)" d="m75.07999,138.919c1.83,1.974 4.17,2.96 6.99,2.96l421.81,0c2.89,0 5.37,-0.986 7.42,-2.96c1.91,-1.973 2.86,-4.369 2.86,-7.188s-0.95,-5.144 -2.86,-6.977c-2.05,-2.114 -4.53,-3.171 -7.42,-3.171l-421.81,0c-2.82,0 -5.16,1.057 -6.99,3.171c-2.13,1.833 -3.19,4.158 -3.19,6.977s1.06,5.215 3.19,7.188z"/>
  </g>
  <path stroke="null" id="svg_67" fill="url(#e)" d="m63.9,913.9473c-16.1,0 -24.14,7.877 -24.14,23.631l0,274.29c0,15.754 8.04,23.631 24.14,23.631l516.18,0c15.25,-0.351 22.87,-8.228 22.87,-23.631l0,-274.29c0,-15.332 -7.62,-23.209 -22.87,-23.631l-516.18,0z"/>
 </g>
</svg>