<svg width="542" height="310" xmlns="http://www.w3.org/2000/svg" xmlns:xlink="http://www.w3.org/1999/xlink" fill="none">
 <filter id="a" color-interpolation-filters="sRGB" filterUnits="userSpaceOnUse" height="368.737" width="600.216" x="710.151" y="577.651">
  <feGaussianBlur result="effect1_foregroundBlur_625_167" stdDeviation="10"/>
 </filter>
 <defs>
  <linearGradient id="f">
   <stop offset="0" stop-color="#e6eef3"/>
   <stop offset="0.99216" stop-color="#f2f6f9"/>
  </linearGradient>
  <linearGradient id="p" x1="0" x2="1.01654" y1="0.61363" y2="0.69545">
   <stop offset="0" stop-color="#e7eff4"/>
   <stop offset="1" stop-color="#d6e0e8"/>
  </linearGradient>
  <linearGradient id="q" x1="-0.13907" x2="0.32621" y1="-0.00769" y2="0.39976">
   <stop offset="0" stop-color="#ffebb4"/>
   <stop offset="1" stop-color="#fee08e"/>
  </linearGradient>
  <linearGradient id="r" x1="-0.00321" x2="0.262" y1="-0.25646" y2="0.67855">
   <stop offset="0" stop-color="#ffe08f"/>
   <stop offset="1" stop-color="#f5a623" stop-opacity="0"/>
  </linearGradient>
  <linearGradient id="s" x1="-0.39423" x2="0.08438" y1="1.09302" y2="1.09922">
   <stop offset="0" stop-color="#d7dce1"/>
   <stop offset="1" stop-color="#d7dce1" stop-opacity="0"/>
  </linearGradient>
  <linearGradient id="t" x1="0" x2="0.99995" xlink:href="#f" y1="0.49854" y2="0.49854"/>
 </defs>
 <filter id="b" color-interpolation-filters="sRGB" filterUnits="userSpaceOnUse" height="592" width="491" x="327.5" y="193">
  <feGaussianBlur result="effect1_foregroundBlur_625_167" stdDeviation="3"/>
 </filter>
 <filter id="c" color-interpolation-filters="sRGB" filterUnits="userSpaceOnUse" height="42" width="33" x="678.5" y="641">
  <feGaussianBlur stdDeviation="5"/>
 </filter>
 <mask id="z" height="1296" maskUnits="userSpaceOnUse" width="1463" x="230" y="0">
  <path d="m1692.5,0l-1462,0l0,1296l1462,0l0,-1296z" fill="#fff" id="svg_1"/>
 </mask>
 <mask id="A" height="64" maskUnits="userSpaceOnUse" width="38" x="555" y="337">
  <path d="m574,401c10.217,0 18.5,-14.327 18.5,-32s-8.283,-32 -18.5,-32s-18.5,14.327 -18.5,32s8.283,32 18.5,32z" fill="#fff" id="svg_2"/>
 </mask>
 <mask id="B" height="64" maskUnits="userSpaceOnUse" width="38" x="655" y="337">
  <path d="m674,401c10.217,0 18.5,-14.327 18.5,-32s-8.283,-32 -18.5,-32s-18.5,14.327 -18.5,32s8.283,32 18.5,32z" fill="#fff" id="svg_3"/>
 </mask>
 <g>
  <title>Layer 1</title>
  <g transform="rotate(-2 303.931 186.048)" id="svg_62">
   <path d="m0.67033,209.08621l-1.17,28.62l-1,31.5c-0.603,14.745 8.743,19.908 24,20.5" stroke="url(#s)" stroke-width="3" id="svg_31"/>
   <g id="svg_4">
    <g filter="url(#a)" opacity="0.22757" id="svg_18">
     <path d="m592.53033,70.27321l-512.688,-17.904c-10.487,-0.366 -19.285,7.838 -19.652,18.325l-9.527,272.834c-0.366,10.487 7.838,19.285 18.325,19.652l512.692,17.903c10.48,0.366 19.28,-7.838 19.65,-18.325l9.52,-272.834c0.37,-10.487 -7.83,-19.285 -18.32,-19.651z" fill="#000" fill-opacity="0.1" id="svg_19"/>
    </g>
    <path d="m541.25033,227.69821l6.82,-196.782c0.61,-14.679 -6.72,-22.248 -21.98,-22.709l-487.837,-16.588c-15.19,-0.592 -23.087,6.484 -23.689,21.229l-6.826,196.682l533.512,18.168z" fill="#fad77b" id="svg_25"/>
    <path d="m538.82033,295.33421l1.04,-29.91l1.14,-39.615l-540.788,-19.103l-2.14,40.615l-1.037,30.008c-0.621,14.693 6.944,22.302 22.695,22.826l494.53,16.53c15.76,0.459 23.94,-6.658 24.56,-21.351zm-383.109,-21.07c-3.244,-0.13 -6.558,-0.26 -9.941,-0.39c-6.558,-0.196 -13.22,-0.423 -19.985,-0.684c-26.923,-0.78 -55.642,-1.691 -86.155,-2.732c-2.83,-0.131 -5.074,-1.107 -6.731,-2.928c-1.933,-1.887 -2.899,-4.165 -2.899,-6.832c0.138,-2.603 1.277,-4.75 3.417,-6.442c1.726,-1.822 3.97,-2.668 6.731,-2.537c30.513,0.976 59.266,1.886 86.258,2.732c6.697,0.196 13.324,0.423 19.882,0.684c3.383,0.065 6.696,0.162 9.941,0.292c0.759,0 1.415,0.065 1.967,0.196l33.24,0.975c103.137,3.319 156.814,5.108 161.024,5.368c2.76,0 5.11,0.944 7.04,2.831c1.79,1.822 2.62,4.066 2.49,6.734c0,2.603 -1.01,4.815 -3.01,6.637c-1.93,1.692 -4.28,2.538 -7.04,2.538c-4.28,-0.196 -57.988,-1.952 -161.125,-5.271l-33.136,-1.073c-0.622,-0.065 -1.277,-0.098 -1.968,-0.098z" fill="url(#p)" id="svg_26"/>
    <path d="m157.76933,265.51421c3.279,0.131 6.491,0.263 9.636,0.395c0.67,0 1.305,0.033 1.908,0.098l32.121,1.086c99.976,3.357 152.036,5.135 156.186,5.332c2.68,0 4.95,-0.856 6.83,-2.567c1.94,-1.843 2.91,-4.081 2.91,-6.714c0.13,-2.699 -0.67,-4.97 -2.41,-6.813c-1.87,-1.909 -4.15,-2.863 -6.83,-2.863c-4.08,-0.263 -56.108,-2.074 -156.084,-5.431l-32.222,-0.987c-0.535,-0.132 -1.171,-0.198 -1.907,-0.198c-3.145,-0.131 -6.357,-0.23 -9.636,-0.296c-6.357,-0.263 -12.782,-0.493 -19.273,-0.691c-26.165,-0.856 -54.036,-1.777 -83.615,-2.764c-2.676,-0.132 -4.851,0.724 -6.524,2.567c-2.075,1.711 -3.179,3.883 -3.313,6.516c0,2.699 0.937,5.003 2.811,6.912c1.606,1.843 3.781,2.83 6.525,2.962c29.578,1.053 57.416,1.975 83.514,2.765c6.558,0.263 13.016,0.493 19.373,0.691z" fill="#c4d4e0" id="svg_27"/>
    <path d="m532.68033,227.20521l6.83,-196.782c0.6,-14.745 -6.73,-22.347 -21.99,-22.808l-487.833,-16.588c-15.191,-0.526 -23.087,6.583 -23.689,21.327l-6.826,196.683l533.508,18.168z" fill="#fee08e" id="svg_28"/>
    <path d="m0.72333,207.58921l6.773,-195.174c0,-0.001 0,-0.003 0.001,-0.004c0.291,-7.127 2.332,-12.14 5.878,-15.332c3.555,-3.201 8.886,-4.808 16.26,-4.553l0.001,0l487.834,16.588l0.01,0c7.41,0.224 12.61,2.175 15.9,5.589c3.28,3.405 4.92,8.529 4.63,15.659l0,0.009l-6.78,195.283l-530.507,-18.065z" fill="url(#q)" stroke="url(#r)" stroke-width="3" id="svg_29"/>
    <path d="m530.57033,286.94021l1.01,-30.016l1.1,-29.719l-533.508,-18.168l-1.104,29.72l-1.004,30.016c-0.602,14.744 6.725,22.413 21.983,23.005l487.833,16.588c15.19,0.461 23.09,-6.681 23.69,-21.426zm-346.702,-20.34l-31.921,-1.086c-0.602,-0.131 -1.238,-0.197 -1.907,-0.197c-3.212,-0.066 -6.424,-0.165 -9.636,-0.296c-6.357,-0.264 -12.815,-0.494 -19.373,-0.692c-26.098,-0.789 -53.97,-1.711 -83.615,-2.764c-2.677,-0.132 -4.885,-1.119 -6.625,-2.962c-1.874,-1.975 -2.81,-4.279 -2.81,-6.912c0.133,-2.633 1.238,-4.805 3.312,-6.516c1.74,-1.844 3.982,-2.699 6.725,-2.568c29.578,0.988 57.417,1.876 83.515,2.666c6.558,0.264 13.016,0.494 19.373,0.691c3.279,0.132 6.491,0.264 9.636,0.395c0.669,0 1.305,0.066 1.907,0.198l32.021,0.987c100.043,3.357 152.14,5.135 156.29,5.332c2.68,0 4.95,0.987 6.82,2.962c1.74,1.843 2.55,4.081 2.41,6.714c0,2.699 -0.97,4.97 -2.91,6.813c-1.87,1.711 -4.18,2.567 -6.92,2.567c-4.09,-0.263 -56.182,-2.04 -156.292,-5.332z" fill="#fff" id="svg_30"/>
    <path d="m151.94733,265.51421l31.921,1.086c100.11,3.292 152.202,5.069 156.292,5.332c2.74,0 5.05,-0.856 6.92,-2.567c1.94,-1.843 2.91,-4.114 2.91,-6.813c0.14,-2.633 -0.67,-4.871 -2.41,-6.714c-1.87,-1.975 -4.14,-2.962 -6.82,-2.962c-4.15,-0.198 -56.247,-1.975 -156.29,-5.332l-32.021,-0.987c-0.602,-0.132 -1.238,-0.198 -1.907,-0.198c-3.145,-0.131 -6.357,-0.263 -9.636,-0.395c-6.357,-0.197 -12.815,-0.427 -19.373,-0.691c-26.098,-0.79 -53.937,-1.678 -83.515,-2.666c-2.743,-0.131 -4.985,0.724 -6.725,2.568c-2.075,1.711 -3.179,3.883 -3.313,6.516c0,2.633 0.937,4.937 2.811,6.912c1.74,1.843 3.948,2.83 6.625,2.962c29.645,1.053 57.517,1.974 83.615,2.764c6.558,0.198 13.016,0.428 19.373,0.691c3.212,0.132 6.424,0.231 9.636,0.297c0.669,0 1.305,0.066 1.907,0.197z" fill="url(#t)" id="svg_32"/>
    <path d="m182.32033,111.46121l-12.827,11.961l-3.418,-3.665l6.571,-6.127l-22.286,-0.78l0.175,-5.007l22.286,0.779l-6.128,-6.572l3.664,-3.417l11.963,12.828zm-86.722,-3.032l12.827,-11.962l3.418,3.666l-6.571,6.127l22.285,0.779l-0.174,5.008l-22.286,-0.779l6.128,6.571l-3.665,3.418l-11.962,-12.828zm56.836,-29.017l-3.665,3.418l-6.128,-6.572l-0.777,22.286l-5.008,-0.175l0.777,-22.286l-6.571,6.128l-3.417,-3.666l12.827,-11.961l11.962,12.828zm-11.372,42.109l-0.777,22.285l6.571,-6.127l3.418,3.665l-12.827,11.962l-11.963,-12.829l3.665,-3.417l6.128,6.571l0.778,-22.285l5.007,0.175z" fill="#f5a623" id="svg_33"/>
    <path clip-rule="evenodd" d="m204.50533,113.30521c0.144,-4.125 1.176,-7.378 3.097,-9.759c1.92,-2.381 4.472,-3.516 7.657,-3.405c2.554,0.089 4.63,1.125 6.228,3.106l0.472,-13.498l7.032,0.246l-1.312,37.56l-6.329,-0.221l-0.241,-2.824c-1.823,2.14 -4.108,3.162 -6.857,3.066c-3.087,-0.108 -5.522,-1.421 -7.303,-3.94c-1.782,-2.518 -2.596,-5.962 -2.444,-10.331zm6.99,0.758c-0.086,2.478 0.276,4.392 1.086,5.743c0.811,1.35 2.033,2.054 3.666,2.111c2.166,0.075 3.726,-0.792 4.679,-2.603l0.365,-10.442c-0.809,-1.873 -2.288,-2.847 -4.438,-2.922c-3.379,-0.118 -5.165,2.586 -5.358,8.113zm37.663,-5.614c-0.949,-0.163 -1.787,-0.258 -2.515,-0.283c-2.651,-0.093 -4.42,0.751 -5.308,2.532l-0.605,17.313l-7.008,-0.245l0.924,-26.458l6.62,0.231l0.084,3.161c1.491,-2.38 3.482,-3.526 5.971,-3.44c0.776,0.028 1.5,0.159 2.172,0.395l-0.335,6.794zm17.766,20.477c-0.301,-0.647 -0.507,-1.446 -0.62,-2.397c-1.764,1.848 -4.004,2.725 -6.72,2.63c-2.57,-0.089 -4.674,-0.914 -6.311,-2.473c-1.637,-1.558 -2.415,-3.479 -2.336,-5.761c0.098,-2.804 1.204,-4.92 3.318,-6.348c2.113,-1.428 5.118,-2.082 9.015,-1.962l3.225,0.112l0.053,-1.516c0.042,-1.223 -0.235,-2.212 -0.831,-2.967c-0.597,-0.755 -1.566,-1.156 -2.908,-1.203c-1.18,-0.041 -2.116,0.212 -2.807,0.759c-0.69,0.547 -1.053,1.318 -1.088,2.312l-7.008,-0.245c0.054,-1.532 0.572,-2.934 1.555,-4.205c0.983,-1.272 2.345,-2.249 4.084,-2.93c1.74,-0.682 3.676,-0.986 5.81,-0.912c3.233,0.113 5.771,1.022 7.613,2.727c1.843,1.705 2.712,4.04 2.608,7.008l-0.4,11.468c-0.072,2.512 0.21,4.423 0.844,5.734l-0.015,0.416l-7.081,-0.247zm-5.623,-5.118c1.034,0.036 1.996,-0.163 2.885,-0.597c0.89,-0.434 1.558,-1.035 2.006,-1.803l0.158,-4.548l-2.618,-0.091c-3.508,-0.123 -5.418,1.034 -5.73,3.472l-0.039,0.415c-0.03,0.88 0.251,1.616 0.846,2.208c0.594,0.592 1.425,0.907 2.492,0.944zm17.107,-7.923c0.142,-4.059 1.213,-7.294 3.216,-9.705c2.002,-2.411 4.628,-3.56 7.877,-3.447c2.877,0.101 5.082,1.174 6.613,3.218l0.378,-2.484l6.353,0.222l-0.893,25.579c-0.081,2.315 -0.673,4.31 -1.775,5.985c-1.103,1.676 -2.615,2.928 -4.538,3.759s-4.153,1.202 -6.691,1.113c-1.924,-0.067 -3.786,-0.52 -5.585,-1.358c-1.8,-0.838 -3.147,-1.885 -4.042,-3.14l3.254,-4.196c1.677,2.034 3.76,3.094 6.25,3.181c1.859,0.065 3.323,-0.386 4.393,-1.352c1.069,-0.967 1.636,-2.371 1.701,-4.213l0.049,-1.419c-1.681,1.786 -3.839,2.633 -6.474,2.541c-3.152,-0.11 -5.659,-1.442 -7.52,-3.997c-1.861,-2.554 -2.72,-5.885 -2.576,-9.993l0.01,-0.294zm6.99,0.759c-0.084,2.396 0.327,4.292 1.234,5.686c0.906,1.395 2.191,2.121 3.857,2.179c2.133,0.075 3.689,-0.679 4.667,-2.261l0.389,-11.126c-0.882,-1.647 -2.365,-2.506 -4.45,-2.579c-1.682,-0.059 -3.027,0.588 -4.038,1.94c-1.01,1.352 -1.563,3.406 -1.659,6.161zm21.968,0.253c0.142,-4.06 1.214,-7.295 3.216,-9.706s4.628,-3.56 7.877,-3.446c2.881,0.1 5.081,1.173 6.611,3.218l0.38,-2.485l6.35,0.222l-0.89,25.579c-0.08,2.315 -0.67,4.31 -1.77,5.985c-1.11,1.676 -2.62,2.929 -4.54,3.759c-1.93,0.831 -4.156,1.202 -6.694,1.113c-1.923,-0.067 -3.785,-0.52 -5.585,-1.358s-3.147,-1.885 -4.042,-3.14l3.254,-4.196c1.677,2.034 3.761,3.094 6.25,3.181c1.859,0.065 3.327,-0.386 4.397,-1.352c1.07,-0.967 1.63,-2.371 1.7,-4.213l0.05,-1.418c-1.68,1.785 -3.842,2.632 -6.477,2.54c-3.153,-0.11 -5.659,-1.442 -7.52,-3.996c-1.862,-2.554 -2.72,-5.886 -2.577,-9.994l0.01,-0.293zm6.99,0.758c-0.083,2.396 0.328,4.292 1.234,5.687c0.906,1.394 2.192,2.12 3.857,2.179c2.133,0.074 3.693,-0.68 4.663,-2.261l0.39,-11.127c-0.88,-1.646 -2.36,-2.506 -4.447,-2.579c-1.681,-0.059 -3.027,0.588 -4.037,1.94s-1.564,3.406 -1.66,6.161zm37.724,14.245c-0.3,-0.648 -0.51,-1.446 -0.62,-2.397c-1.77,1.848 -4.01,2.725 -6.72,2.63c-2.57,-0.09 -4.68,-0.914 -6.31,-2.473c-1.64,-1.559 -2.42,-3.479 -2.34,-5.762c0.1,-2.804 1.2,-4.92 3.32,-6.348c2.11,-1.427 5.12,-2.081 9.01,-1.962l3.23,0.113l0.05,-1.516c0.04,-1.223 -0.23,-2.212 -0.83,-2.967c-0.6,-0.756 -1.57,-1.157 -2.91,-1.204c-1.18,-0.041 -2.11,0.212 -2.8,0.759c-0.69,0.548 -1.06,1.318 -1.09,2.313l-7.01,-0.245c0.05,-1.532 0.57,-2.934 1.56,-4.206c0.98,-1.271 2.34,-2.248 4.08,-2.93s3.68,-0.985 5.81,-0.911c3.23,0.113 5.77,1.022 7.61,2.727c1.84,1.704 2.71,4.04 2.61,7.007l-0.4,11.469c-0.07,2.511 0.21,4.423 0.84,5.734l-0.01,0.416l-7.08,-0.247zm-5.63,-5.118c1.04,0.036 2,-0.163 2.89,-0.597s1.56,-1.035 2.01,-1.803l0.15,-4.548l-2.61,-0.092c-3.51,-0.122 -5.42,1.035 -5.73,3.473l-0.04,0.414c-0.03,0.881 0.25,1.617 0.84,2.209c0.6,0.592 1.43,0.907 2.49,0.944zm41.76,-6.622c-0.15,4.239 -1.16,7.513 -3.04,9.822c-1.88,2.31 -4.43,3.408 -7.64,3.296c-2.85,-0.099 -5.08,-1.279 -6.7,-3.539l-0.41,2.801l-6.31,-0.22l1.31,-37.561l7.01,0.245l-0.47,13.474c1.68,-1.851 3.84,-2.731 6.48,-2.639c3.2,0.112 5.67,1.386 7.4,3.821c1.74,2.436 2.53,5.805 2.38,10.109l-0.01,0.391zm-6.99,-0.758c0.09,-2.673 -0.26,-4.64 -1.06,-5.901c-0.8,-1.26 -2.03,-1.919 -3.69,-1.977c-2.23,-0.078 -3.8,0.79 -4.71,2.602l-0.36,10.442c0.79,1.889 2.31,2.872 4.56,2.95c2.26,0.079 3.79,-0.993 4.58,-3.218c0.37,-1.064 0.6,-2.697 0.68,-4.898zm18.86,14.174l-7.03,-0.246l1.31,-37.561l7.03,0.246l-1.31,37.561zm18.44,1.133c-3.85,-0.134 -6.94,-1.433 -9.27,-3.898c-2.34,-2.465 -3.43,-5.678 -3.3,-9.639l0.03,-0.685c0.09,-2.657 0.68,-5.015 1.78,-7.075c1.09,-2.059 2.59,-3.623 4.49,-4.69c1.91,-1.068 4.06,-1.56 6.45,-1.477c3.59,0.126 6.38,1.365 8.36,3.72c1.98,2.354 2.9,5.626 2.75,9.816l-0.1,2.885l-16.71,-0.583c0.17,1.736 0.8,3.145 1.91,4.229c1.1,1.083 2.52,1.655 4.27,1.716c2.7,0.094 4.84,-0.819 6.43,-2.738l3.31,4.008c-1.1,1.463 -2.57,2.583 -4.39,3.36c-1.83,0.777 -3.83,1.128 -6.01,1.051zm-0.04,-21.742c-1.39,-0.049 -2.54,0.384 -3.43,1.3c-0.9,0.915 -1.5,2.249 -1.81,4.001l9.75,0.34l0.02,-0.562c0.02,-1.566 -0.36,-2.791 -1.13,-3.675c-0.78,-0.884 -1.92,-1.353 -3.4,-1.404z" fill="#f5a623" fill-rule="evenodd" id="svg_34"/>
   </g>
  </g>
 </g>
</svg>